# xmcd
#
# Track frame offsets: 
#        150
#        25315
#        50165
#        69480
#        96752
#        116387
#        137497
#        163747
#        180012
#        206340
#
# Disc length: 2969 seconds
#
# Revision: 10
# Processed by: cddbd v1.5.2PL0 Copyright (c) Steve Scherf et al.
# Submitted via: ExactAudioCopy v1.0b4
#
DISCID=7e0b970a
DTITLE=上妻宏光 - AGATSUMA
DYEAR=2001
DGENRE=Traditional
TTITLE0=風-KAZE-
TTITLE1=津軽じょんがら節-TSUGARU JONGARABUSHI-
TTITLE2=游-YUU-
TTITLE3=津軽あいや節-TSUGARU AIYABUSHI-
TTITLE4=雅-MIYABI-
TTITLE5=津軽よされ節-TSUGARU YOSAREBUSHI-
TTITLE6=夕立-YUUDACHI-
TTITLE7=津軽音頭-TSUGARU ONDO-
TTITLE8=津軽三下がり-TSUGARU SANSAGARI-
TTITLE9=夜明け前-YOAKEMAE-
EXTD=YEAR: 2001
EXTT0=
EXTT1=
EXTT2=
EXTT3=
EXTT4=
EXTT5=
EXTT6=
EXTT7=
EXTT8=
EXTT9=
PLAYORDER=
